<mxfile host="app.diagrams.net" modified="2024-01-09T10:51:44.844Z" agent="Mozilla/5.0 (Windows NT 10.0; Win64; x64) AppleWebKit/537.36 (KHTML, like Gecko) Chrome/120.0.0.0 Safari/537.36" etag="zwJUM8CN288DZIHq5Eev" version="22.1.17" type="github">
  <diagram id="R2lEEEUBdFMjLlhIrx00" name="Page-1">
    <mxGraphModel dx="1104" dy="1688" grid="1" gridSize="10" guides="1" tooltips="1" connect="1" arrows="1" fold="1" page="1" pageScale="1" pageWidth="850" pageHeight="1100" math="0" shadow="0" extFonts="Permanent Marker^https://fonts.googleapis.com/css?family=Permanent+Marker">
      <root>
        <mxCell id="0" />
        <mxCell id="1" parent="0" />
        <mxCell id="czAPmn4BMrCCdsKKk7Zk-23" value="DEPARTAMENTO" style="rounded=0;whiteSpace=wrap;html=1;" vertex="1" parent="1">
          <mxGeometry x="175" y="-1040" width="120" height="60" as="geometry" />
        </mxCell>
        <mxCell id="czAPmn4BMrCCdsKKk7Zk-24" value="" style="endArrow=none;html=1;rounded=0;exitX=1;exitY=0.5;exitDx=0;exitDy=0;entryX=0;entryY=0.5;entryDx=0;entryDy=0;" edge="1" parent="1" source="czAPmn4BMrCCdsKKk7Zk-23" target="czAPmn4BMrCCdsKKk7Zk-26">
          <mxGeometry width="50" height="50" relative="1" as="geometry">
            <mxPoint x="585" y="-880" as="sourcePoint" />
            <mxPoint x="395" y="-1010" as="targetPoint" />
          </mxGeometry>
        </mxCell>
        <mxCell id="czAPmn4BMrCCdsKKk7Zk-26" value="SUPERVISOR" style="rounded=0;whiteSpace=wrap;html=1;fillColor=#dae8fc;strokeColor=#6c8ebf;" vertex="1" parent="1">
          <mxGeometry x="565" y="-1040" width="120" height="60" as="geometry" />
        </mxCell>
        <mxCell id="czAPmn4BMrCCdsKKk7Zk-27" value="ASIGNAR" style="rhombus;whiteSpace=wrap;html=1;fillColor=#fa6800;fontColor=#000000;strokeColor=#C73500;" vertex="1" parent="1">
          <mxGeometry x="165" y="-920" width="140" height="80" as="geometry" />
        </mxCell>
        <mxCell id="czAPmn4BMrCCdsKKk7Zk-28" value="EMPLEADO" style="rounded=0;whiteSpace=wrap;html=1;fillColor=#6d8764;fontColor=#ffffff;strokeColor=#3A5431;" vertex="1" parent="1">
          <mxGeometry x="175" y="-760" width="120" height="60" as="geometry" />
        </mxCell>
        <mxCell id="czAPmn4BMrCCdsKKk7Zk-29" value="" style="endArrow=none;html=1;rounded=0;entryX=0.5;entryY=1;entryDx=0;entryDy=0;" edge="1" parent="1" source="czAPmn4BMrCCdsKKk7Zk-27" target="czAPmn4BMrCCdsKKk7Zk-23">
          <mxGeometry width="50" height="50" relative="1" as="geometry">
            <mxPoint x="455" y="-890" as="sourcePoint" />
            <mxPoint x="225" y="-980" as="targetPoint" />
          </mxGeometry>
        </mxCell>
        <mxCell id="czAPmn4BMrCCdsKKk7Zk-30" value="" style="endArrow=none;html=1;rounded=0;entryX=0.5;entryY=1;entryDx=0;entryDy=0;exitX=0.5;exitY=0;exitDx=0;exitDy=0;" edge="1" parent="1" source="czAPmn4BMrCCdsKKk7Zk-28" target="czAPmn4BMrCCdsKKk7Zk-27">
          <mxGeometry width="50" height="50" relative="1" as="geometry">
            <mxPoint x="245" y="-910" as="sourcePoint" />
            <mxPoint x="245" y="-970" as="targetPoint" />
          </mxGeometry>
        </mxCell>
        <mxCell id="czAPmn4BMrCCdsKKk7Zk-32" value="PROYECTO" style="rounded=0;whiteSpace=wrap;html=1;" vertex="1" parent="1">
          <mxGeometry x="565" y="-760" width="120" height="60" as="geometry" />
        </mxCell>
        <mxCell id="czAPmn4BMrCCdsKKk7Zk-33" value="ASIGNAR" style="rhombus;whiteSpace=wrap;html=1;fillColor=#fa6800;fontColor=#000000;strokeColor=#C73500;" vertex="1" parent="1">
          <mxGeometry x="365" y="-770" width="140" height="80" as="geometry" />
        </mxCell>
        <mxCell id="czAPmn4BMrCCdsKKk7Zk-34" value="" style="endArrow=none;html=1;rounded=0;exitX=1;exitY=0.5;exitDx=0;exitDy=0;entryX=0;entryY=0.5;entryDx=0;entryDy=0;" edge="1" parent="1" source="czAPmn4BMrCCdsKKk7Zk-28" target="czAPmn4BMrCCdsKKk7Zk-33">
          <mxGeometry width="50" height="50" relative="1" as="geometry">
            <mxPoint x="585" y="-880" as="sourcePoint" />
            <mxPoint x="635" y="-930" as="targetPoint" />
          </mxGeometry>
        </mxCell>
        <mxCell id="czAPmn4BMrCCdsKKk7Zk-35" value="" style="endArrow=none;html=1;rounded=0;entryX=0;entryY=0.5;entryDx=0;entryDy=0;exitX=1;exitY=0.5;exitDx=0;exitDy=0;" edge="1" parent="1" source="czAPmn4BMrCCdsKKk7Zk-33" target="czAPmn4BMrCCdsKKk7Zk-32">
          <mxGeometry width="50" height="50" relative="1" as="geometry">
            <mxPoint x="335" y="-720" as="sourcePoint" />
            <mxPoint x="375" y="-720" as="targetPoint" />
          </mxGeometry>
        </mxCell>
      </root>
    </mxGraphModel>
  </diagram>
</mxfile>
